<svg xmlns="http://www.w3.org/2000/svg" version="1.1" xmlns:xlink="http://www.w3.org/1999/xlink" xmlns:svgjs="http://svgjs.dev/svgjs" width="2000" height="1500" viewBox="0 0 2000 1500"><rect width="2000" height="1500" fill="#3586ff"></rect><g transform="matrix(0.75,0,0,0.75,248.16489361702133,451.45542060402687)"><svg viewBox="0 0 376 149" data-background-color="#3586ff" preserveAspectRatio="xMidYMid meet" height="792" width="2000" xmlns="http://www.w3.org/2000/svg" xmlns:xlink="http://www.w3.org/1999/xlink"><g id="tight-bounds" transform="matrix(1,0,0,1,0.46023999999999887,0.3874449999999996)"><svg viewBox="0 0 375.07953 148.22466" height="148.22466" width="375.07953"><g><svg></svg></g><g><svg viewBox="0 0 375.07953 148.22466" height="148.22466" width="375.07953"><g transform="matrix(1,0,0,1,-10.22024,-51.38889)"><path d="M10.22 195.811v-144.422h375.08v144.422h-77.057l0-4.57h72.487v-135.282h-365.94v135.282h72.488l0 4.57z" fill="#f2f4f6" fill-rule="nonzero" stroke="none" stroke-width="1" stroke-linecap="butt" stroke-linejoin="miter" stroke-miterlimit="10" stroke-dasharray="" stroke-dashoffset="0" font-family="none" font-weight="none" font-size="none" text-anchor="none" style="mix-blend-mode: normal" data-fill-palette-color="tertiary"></path><g><path d="M110.113 190.696v0c-0.292 0.306-0.982 0.452-2.067 0.439v0c-0.223-1.754-0.856-2.631-1.9-2.631v0c-0.821 0-1.518 0.473-2.089 1.42-0.571 0.947-0.856 2.193-0.856 3.738v0c0 1.587 0.251 2.809 0.752 3.667 0.501 0.855 1.253 1.282 2.255 1.282v0c1.058 0 2.095-0.432 3.112-1.295v0c0.209 0.125 0.369 0.341 0.48 0.648v0c-1.016 1.086-2.29 1.629-3.821 1.629v0c-1.462 0-2.659-0.505-3.592-1.516-0.933-1.008-1.399-2.493-1.4-4.457v0c0-1.879 0.519-3.352 1.558-4.419 1.036-1.064 2.222-1.595 3.559-1.595v0c1.058 0 1.991 0.265 2.798 0.793 0.807 0.529 1.211 1.295 1.211 2.297zM111.638 193.62v0c0-0.835 0.123-1.619 0.367-2.351 0.242-0.73 0.593-1.366 1.053-1.909 0.459-0.543 1.014-0.972 1.662-1.286 0.646-0.312 1.373-0.468 2.18-0.468v0c0.794 0 1.518 0.156 2.172 0.468 0.654 0.315 1.215 0.743 1.683 1.286 0.465 0.543 0.823 1.179 1.074 1.909 0.251 0.732 0.376 1.516 0.376 2.351v0c0 0.863-0.128 1.657-0.385 2.381-0.259 0.724-0.621 1.353-1.085 1.888-0.468 0.537-1.029 0.955-1.684 1.253-0.654 0.301-1.371 0.451-2.151 0.451v0c-0.821 0-1.555-0.146-2.201-0.439-0.649-0.292-1.199-0.703-1.649-1.232-0.454-0.529-0.802-1.16-1.045-1.892-0.245-0.73-0.368-1.533-0.367-2.41zM114.687 189.778v0c-0.599 0.849-0.898 2.13-0.898 3.842v0c0 0.849 0.081 1.594 0.242 2.235 0.159 0.64 0.377 1.172 0.656 1.595 0.278 0.426 0.606 0.743 0.981 0.952 0.376 0.209 0.787 0.313 1.232 0.314v0c0.432 0 0.842-0.104 1.233-0.314 0.39-0.209 0.724-0.526 1.002-0.952 0.278-0.423 0.501-0.955 0.668-1.595 0.167-0.64 0.251-1.385 0.251-2.235v0c0-0.849-0.084-1.598-0.251-2.247-0.167-0.646-0.393-1.182-0.676-1.608-0.287-0.423-0.621-0.743-1.003-0.961-0.384-0.214-0.792-0.322-1.224-0.321v0c-0.863 0-1.601 0.432-2.213 1.295zM134.087 185.935v10.275c0 0.933 0.021 1.587 0.063 1.963v0l1.65 0.208c0.042 0.223 0.042 0.487 0 0.794v0c-1.016 0.042-2.074 0.139-3.175 0.292v0c-0.097-0.097-0.167-0.23-0.208-0.396v0l-0.105-1.337c-0.487 0.571-1.093 1.026-1.817 1.366-0.724 0.342-1.483 0.514-2.276 0.514v0c-1.211 0-2.214-0.505-3.007-1.517-0.794-1.008-1.19-2.354-1.19-4.038v0c0-1.949 0.518-3.513 1.553-4.691 1.039-1.175 2.282-1.763 3.73-1.762v0c1.142 0 2.074 0.271 2.798 0.814v0-2.798c0-0.919-0.021-1.601-0.062-2.047v0l-1.65-0.209c-0.056-0.209-0.056-0.473 0-0.793v0c0.961-0.07 2.158-0.216 3.592-0.439v0c0.125 0.139 0.195 0.278 0.209 0.418v0c-0.07 0.362-0.104 1.49-0.105 3.383zM129.138 188.733v0c-0.905 0-1.629 0.476-2.172 1.429-0.543 0.955-0.814 2.275-0.814 3.959v0c0 1.378 0.255 2.429 0.764 3.154 0.507 0.724 1.178 1.086 2.013 1.086v0c0.501 0 1.051-0.157 1.65-0.472 0.599-0.312 1.107-0.746 1.524-1.304v0-6.682c-0.682-0.78-1.671-1.169-2.965-1.17zM145.782 193.286v0h-6.557c-0.125 3.55 0.94 5.325 3.195 5.325v0c0.961 0 1.942-0.425 2.944-1.274v0c0.209 0.125 0.369 0.341 0.48 0.648v0c-0.961 1.072-2.179 1.608-3.654 1.608v0c-3.397 0-5.095-1.998-5.096-5.994v0c0-1.893 0.501-3.366 1.504-4.419 1.002-1.05 2.172-1.575 3.508-1.574v0c1.462 0 2.513 0.508 3.154 1.524 0.64 1.016 0.961 2.339 0.96 3.968v0c-0.139 0.111-0.285 0.174-0.438 0.188zM142.065 188.441v0c-0.724 0-1.341 0.376-1.851 1.128-0.507 0.752-0.816 1.712-0.927 2.882v0h2.59c1.03 0 1.768-0.063 2.213-0.188v0c0-1.142-0.174-2.065-0.522-2.769-0.348-0.702-0.849-1.053-1.503-1.053zM149.457 196.857v0c0.376 0 0.693 0.123 0.953 0.368 0.256 0.242 0.384 0.544 0.384 0.906v0c0 0.362-0.128 0.671-0.384 0.927-0.259 0.259-0.569 0.388-0.932 0.388v0c-0.362 0-0.672-0.129-0.931-0.388-0.256-0.256-0.384-0.565-0.385-0.927v0c0-0.362 0.125-0.664 0.376-0.906 0.251-0.245 0.557-0.368 0.919-0.368zM161.82 190.696v0c-0.292 0.306-0.982 0.452-2.067 0.439v0c-0.223-1.754-0.856-2.631-1.901-2.631v0c-0.821 0-1.518 0.473-2.088 1.42-0.571 0.947-0.856 2.193-0.856 3.738v0c0 1.587 0.251 2.809 0.752 3.667 0.501 0.855 1.253 1.282 2.255 1.282v0c1.058 0 2.095-0.432 3.112-1.295v0c0.209 0.125 0.369 0.341 0.48 0.648v0c-1.016 1.086-2.29 1.629-3.822 1.629v0c-1.462 0-2.659-0.505-3.592-1.516-0.933-1.008-1.399-2.493-1.399-4.457v0c0-1.879 0.518-3.352 1.554-4.419 1.039-1.064 2.226-1.595 3.563-1.595v0c1.058 0 1.991 0.265 2.798 0.793 0.807 0.529 1.211 1.295 1.211 2.297zM163.345 193.62v0c0-0.835 0.123-1.619 0.367-2.351 0.242-0.73 0.593-1.366 1.053-1.909 0.459-0.543 1.014-0.972 1.662-1.286 0.646-0.312 1.373-0.468 2.18-0.468v0c0.794 0 1.518 0.156 2.172 0.468 0.654 0.315 1.215 0.743 1.683 1.286 0.465 0.543 0.823 1.179 1.074 1.909 0.251 0.732 0.376 1.516 0.375 2.351v0c0 0.863-0.128 1.657-0.384 2.381-0.259 0.724-0.621 1.353-1.086 1.888-0.468 0.537-1.029 0.955-1.683 1.253-0.654 0.301-1.371 0.451-2.151 0.451v0c-0.821 0-1.555-0.146-2.201-0.439-0.649-0.292-1.199-0.703-1.65-1.232-0.454-0.529-0.802-1.16-1.044-1.892-0.245-0.73-0.368-1.533-0.367-2.41zM166.393 189.778v0c-0.599 0.849-0.898 2.13-0.897 3.842v0c0 0.849 0.081 1.594 0.242 2.235 0.159 0.64 0.377 1.172 0.655 1.595 0.278 0.426 0.606 0.743 0.982 0.952 0.376 0.209 0.787 0.313 1.232 0.314v0c0.432 0 0.842-0.104 1.232-0.314 0.39-0.209 0.724-0.526 1.003-0.952 0.278-0.423 0.501-0.955 0.668-1.595 0.167-0.64 0.251-1.385 0.25-2.235v0c0-0.849-0.084-1.598-0.25-2.247-0.167-0.646-0.393-1.182-0.677-1.608-0.287-0.423-0.621-0.743-1.002-0.961-0.384-0.214-0.792-0.322-1.224-0.321v0c-0.863 0-1.601 0.432-2.213 1.295zM184.123 195.541v-3.821c0-1.072-0.142-1.824-0.426-2.256-0.287-0.432-0.764-0.647-1.432-0.647v0c-1.03 0-2.067 0.773-3.112 2.318v0 6.975l1.692 0.313c0.056 0.223 0.056 0.501 0 0.836v0c-0.877-0.042-1.775-0.063-2.694-0.063v0c-0.64 0-1.545 0.014-2.715 0.042v0c-0.084-0.265-0.084-0.536 0-0.815v0l1.65-0.23c0.056-0.766 0.084-1.65 0.083-2.652v0-5.722c0-0.278-0.021-0.536-0.062-0.772v0l-1.65-0.209c-0.056-0.209-0.056-0.473 0-0.794v0c0.961-0.07 2.158-0.216 3.592-0.438v0c0.125 0.139 0.195 0.278 0.209 0.417v0c-0.07 0.362-0.104 0.982-0.105 1.859v0c1.1-1.518 2.339-2.276 3.717-2.276v0c2.158 0 3.237 1.023 3.237 3.07v0 7.434l1.692 0.313c0.056 0.223 0.056 0.501 0 0.836v0c-0.877-0.042-1.775-0.063-2.694-0.063v0c-0.64 0-1.545 0.014-2.715 0.042v0c-0.084-0.265-0.084-0.536 0-0.815v0l1.65-0.229c0.056-0.766 0.084-1.65 0.083-2.653zM197.426 195.541v-3.821c0-1.072-0.142-1.824-0.426-2.256-0.287-0.432-0.764-0.647-1.433-0.647v0c-1.03 0-2.067 0.773-3.111 2.318v0 6.975l1.691 0.313c0.056 0.223 0.056 0.501 0 0.836v0c-0.877-0.042-1.775-0.063-2.694-0.063v0c-0.64 0-1.545 0.014-2.715 0.042v0c-0.084-0.265-0.084-0.536 0-0.815v0l1.65-0.23c0.056-0.766 0.084-1.65 0.084-2.652v0-5.722c0-0.278-0.021-0.536-0.063-0.772v0l-1.65-0.209c-0.056-0.209-0.056-0.473 0-0.794v0c0.961-0.07 2.158-0.216 3.592-0.438v0c0.125 0.139 0.195 0.278 0.209 0.417v0c-0.07 0.362-0.104 0.982-0.104 1.859v0c1.1-1.518 2.339-2.276 3.717-2.276v0c2.158 0 3.237 1.023 3.237 3.07v0 7.434l1.691 0.313c0.056 0.223 0.056 0.501 0 0.836v0c-0.877-0.042-1.775-0.063-2.694-0.063v0c-0.64 0-1.545 0.014-2.714 0.042v0c-0.084-0.265-0.084-0.536 0-0.815v0l1.649-0.229c0.056-0.766 0.084-1.65 0.084-2.653zM211.042 193.286v0h-6.558c-0.125 3.55 0.94 5.325 3.195 5.325v0c0.961 0 1.942-0.425 2.945-1.274v0c0.209 0.125 0.369 0.341 0.48 0.648v0c-0.961 1.072-2.179 1.608-3.654 1.608v0c-3.397 0-5.095-1.998-5.096-5.994v0c0-1.893 0.501-3.366 1.504-4.419 1.002-1.05 2.172-1.575 3.508-1.574v0c1.462 0 2.513 0.508 3.154 1.524 0.64 1.016 0.961 2.339 0.96 3.968v0c-0.139 0.111-0.285 0.174-0.438 0.188zM207.324 188.441v0c-0.724 0-1.341 0.376-1.85 1.128-0.507 0.752-0.816 1.712-0.927 2.882v0h2.59c1.03 0 1.768-0.063 2.213-0.188v0c0-1.142-0.174-2.065-0.522-2.769-0.348-0.702-0.849-1.053-1.504-1.053zM222.36 190.696v0c-0.292 0.306-0.982 0.452-2.067 0.439v0c-0.223-1.754-0.856-2.631-1.9-2.631v0c-0.821 0-1.518 0.473-2.089 1.42-0.571 0.947-0.856 2.193-0.856 3.738v0c0 1.587 0.251 2.809 0.752 3.667 0.501 0.855 1.253 1.282 2.255 1.282v0c1.058 0 2.095-0.432 3.112-1.295v0c0.209 0.125 0.369 0.341 0.48 0.648v0c-1.016 1.086-2.29 1.629-3.822 1.629v0c-1.462 0-2.659-0.505-3.591-1.516-0.933-1.008-1.399-2.493-1.4-4.457v0c0-1.879 0.518-3.352 1.554-4.419 1.039-1.064 2.226-1.595 3.563-1.595v0c1.058 0 1.991 0.265 2.798 0.793 0.807 0.529 1.211 1.295 1.211 2.297zM227.038 185.517v0 2.987h2.945c0.028 0.167 0.042 0.292 0.041 0.376v0c0 0.125-0.014 0.271-0.041 0.438v0l-2.945 0.439v5.743c0 1.03 0.095 1.757 0.284 2.18 0.187 0.426 0.482 0.639 0.886 0.639v0c0.362 0 0.926-0.146 1.691-0.439v0c0.139 0.125 0.237 0.362 0.293 0.71v0c-0.418 0.251-0.734 0.434-0.949 0.552-0.217 0.12-0.489 0.226-0.814 0.317-0.329 0.089-0.674 0.134-1.036 0.134v0c-0.696 0-1.263-0.269-1.7-0.806-0.44-0.535-0.66-1.352-0.66-2.452v0-6.829l-1.461-0.188c-0.028-0.139-0.042-0.258-0.042-0.355v0c0-0.111 0.014-0.265 0.042-0.459v0c0.39-0.07 0.728-0.192 1.015-0.368 0.284-0.173 0.523-0.416 0.718-0.731 0.195-0.312 0.345-0.59 0.451-0.835 0.103-0.242 0.231-0.593 0.384-1.053v0c0.125-0.042 0.278-0.063 0.46-0.062v0c0.167 0 0.313 0.021 0.438 0.062zM232.844 196.857v0c0.376 0 0.693 0.123 0.952 0.368 0.256 0.242 0.384 0.544 0.384 0.906v0c0 0.362-0.128 0.671-0.384 0.927-0.259 0.259-0.569 0.388-0.931 0.388v0c-0.362 0-0.671-0.129-0.928-0.388-0.259-0.256-0.388-0.565-0.388-0.927v0c0-0.362 0.125-0.664 0.376-0.906 0.251-0.245 0.557-0.368 0.919-0.368zM245.207 190.696v0c-0.292 0.306-0.982 0.452-2.068 0.439v0c-0.223-1.754-0.856-2.631-1.9-2.631v0c-0.821 0-1.518 0.473-2.089 1.42-0.571 0.947-0.856 2.193-0.856 3.738v0c0 1.587 0.251 2.809 0.752 3.667 0.501 0.855 1.253 1.282 2.255 1.282v0c1.058 0 2.095-0.432 3.112-1.295v0c0.209 0.125 0.369 0.341 0.48 0.648v0c-1.016 1.086-2.29 1.629-3.821 1.629v0c-1.462 0-2.659-0.505-3.592-1.516-0.933-1.008-1.399-2.493-1.399-4.457v0c0-1.879 0.519-3.352 1.557-4.419 1.036-1.064 2.222-1.595 3.559-1.595v0c1.058 0 1.991 0.265 2.798 0.793 0.807 0.529 1.211 1.295 1.212 2.297zM250.365 188.023v0l-0.042 2.151c0.348-0.64 0.833-1.229 1.453-1.766 0.618-0.535 1.206-0.802 1.763-0.802v0c0.432 0 0.814 0.049 1.148 0.146v0c0.111 0.181 0.167 0.418 0.168 0.71v0c0 0.459-0.097 0.919-0.293 1.378v0c-0.501-0.139-0.982-0.209-1.441-0.209v0c-1.142 0-2.081 0.557-2.819 1.671v0l-0.042 3.655v3.153l2.318 0.313c0.056 0.223 0.056 0.501 0 0.836v0c-0.877-0.042-1.879-0.063-3.007-0.063v0c-0.849 0-1.859 0.014-3.028 0.042v0c-0.084-0.265-0.084-0.536 0-0.815v0l1.65-0.229c0.056-0.766 0.084-1.65 0.083-2.653v0-5.722c0-0.278-0.021-0.536-0.062-0.772v0l-1.65-0.209c-0.056-0.209-0.056-0.473 0-0.794v0c0.961-0.07 2.158-0.216 3.592-0.438v0c0.125 0.139 0.195 0.278 0.209 0.417zM264.544 193.286v0h-6.557c-0.125 3.55 0.94 5.325 3.195 5.325v0c0.961 0 1.942-0.425 2.945-1.274v0c0.209 0.125 0.369 0.341 0.48 0.648v0c-0.961 1.072-2.179 1.608-3.655 1.608v0c-3.397 0-5.095-1.998-5.095-5.994v0c0-1.893 0.501-3.366 1.504-4.419 1.002-1.05 2.172-1.575 3.508-1.574v0c1.462 0 2.513 0.508 3.153 1.524 0.64 1.016 0.961 2.339 0.961 3.968v0c-0.139 0.111-0.285 0.174-0.439 0.188zM260.827 188.441v0c-0.724 0-1.339 0.376-1.846 1.128-0.51 0.752-0.82 1.712-0.931 2.882v0h2.589c1.03 0 1.768-0.063 2.214-0.188v0c0-1.142-0.174-2.065-0.522-2.769-0.348-0.702-0.849-1.053-1.504-1.053zM268.7 196.398v0c0 0.724 0.132 1.235 0.397 1.532 0.265 0.301 0.682 0.451 1.253 0.451v0c0.418 0 0.881-0.129 1.391-0.388 0.507-0.256 0.976-0.628 1.407-1.115v0-3.258c-1.434 0.084-2.534 0.337-3.299 0.76-0.766 0.426-1.149 1.098-1.149 2.018zM273.148 192.868v0-1.065c0-1.183-0.135-2.044-0.405-2.581-0.273-0.535-0.723-0.802-1.349-0.802v0c-0.64 0-1.156 0.205-1.545 0.614-0.39 0.412-0.654 1.112-0.794 2.101v0c-0.446 0.097-0.773 0.146-0.981 0.146v0c-0.543 0-0.863-0.195-0.961-0.585v0c0-0.947 0.411-1.698 1.232-2.255 0.821-0.557 1.845-0.835 3.07-0.835v0c1.35 0 2.308 0.274 2.873 0.823 0.562 0.551 0.844 1.537 0.844 2.957v0 5.889c0 0.348 0.021 0.647 0.063 0.898v0l1.65 0.208c0.056 0.209 0.056 0.473 0 0.794v0c-0.988 0.042-2.04 0.139-3.154 0.292v0c-0.111-0.111-0.181-0.251-0.209-0.417v0l-0.104-1.441c-1.156 1.323-2.443 1.984-3.863 1.984v0c-0.877 0-1.562-0.251-2.055-0.752-0.496-0.501-0.743-1.176-0.744-2.026v0c0-1.281 0.582-2.248 1.746-2.903 1.161-0.654 2.723-1.002 4.686-1.044zM281 185.517v0 2.987h2.945c0.028 0.167 0.042 0.292 0.042 0.376v0c0 0.125-0.014 0.271-0.042 0.438v0l-2.945 0.439v5.743c0 1.03 0.095 1.757 0.284 2.18 0.187 0.426 0.482 0.639 0.886 0.639v0c0.362 0 0.926-0.146 1.691-0.439v0c0.139 0.125 0.237 0.362 0.293 0.71v0c-0.418 0.251-0.734 0.434-0.948 0.552-0.217 0.12-0.489 0.226-0.815 0.317-0.329 0.089-0.674 0.134-1.036 0.134v0c-0.696 0-1.263-0.269-1.7-0.806-0.44-0.535-0.66-1.352-0.66-2.452v0-6.829l-1.461-0.188c-0.028-0.139-0.042-0.258-0.042-0.355v0c0-0.111 0.014-0.265 0.042-0.459v0c0.39-0.07 0.728-0.192 1.015-0.368 0.284-0.173 0.523-0.416 0.718-0.731 0.195-0.312 0.345-0.59 0.451-0.835 0.103-0.242 0.231-0.593 0.384-1.053v0c0.125-0.042 0.278-0.063 0.46-0.062v0c0.167 0 0.313 0.021 0.438 0.062zM294.094 193.286v0h-6.557c-0.125 3.55 0.94 5.325 3.195 5.325v0c0.961 0 1.942-0.425 2.944-1.274v0c0.209 0.125 0.369 0.341 0.481 0.648v0c-0.961 1.072-2.179 1.608-3.655 1.608v0c-3.397 0-5.095-1.998-5.095-5.994v0c0-1.893 0.501-3.366 1.503-4.419 1.002-1.05 2.172-1.575 3.509-1.574v0c1.462 0 2.513 0.508 3.153 1.524 0.64 1.016 0.961 2.339 0.961 3.968v0c-0.139 0.111-0.285 0.174-0.439 0.188zM290.377 188.441v0c-0.724 0-1.339 0.376-1.846 1.128-0.51 0.752-0.82 1.712-0.932 2.882v0h2.59c1.03 0 1.768-0.063 2.213-0.188v0c0-1.142-0.174-2.065-0.522-2.769-0.348-0.702-0.849-1.053-1.503-1.053z" fill="#040404" fill-rule="nonzero" stroke="none" stroke-width="1" stroke-linecap="butt" stroke-linejoin="miter" stroke-miterlimit="10" stroke-dasharray="" stroke-dashoffset="0" font-family="none" font-weight="none" font-size="none" text-anchor="none" style="mix-blend-mode: normal" data-fill-palette-color="secondary" id="text-1"></path></g></g><g transform="matrix(1,0,0,1,29.33176499999999,48.77447996360107)"><svg viewBox="0 0 316.416 50.67570007279786" height="50.67570007279786" width="316.416"><g><svg viewBox="0 0 316.416 50.67570007279786" height="50.67570007279786" width="316.416"><g><svg viewBox="0 0 316.416 50.67570007279786" height="50.67570007279786" width="316.416"><g><svg viewBox="0 0 316.416 50.67570007279786" height="50.67570007279786" width="316.416"><g id="textblocktransform"><svg viewBox="0 0 316.416 50.67570007279786" height="50.67570007279786" width="316.416" id="textblock"><g><svg viewBox="0 0 316.416 50.67570007279786" height="50.67570007279786" width="316.416"><g transform="matrix(1,0,0,1,0,0)"><svg width="316.416" viewBox="1.95 -31.74 201.20000000000002 32.23" height="50.67570007279786" data-palette-color="#0b0b0b"><path d="M23.73-20.51L24.71-20.51 24.46-29.3 1.95-29.3 1.95-28.03 5.86-28.03 5.86-1.27 1.95-1.27 1.95 0 24.46 0 24.71-8.79 23.73-8.79 23.05-6.49Q21.83-2.34 19.43-1.51L19.43-1.51Q18.7-1.27 17.87-1.27L17.87-1.27 10.06-1.27 10.06-14.4 20.12-14.4 20.12-15.82 10.06-15.82 10.06-28.03 17.87-28.03Q21.39-28.03 22.9-23.29L22.9-23.29Q23-23 23.05-22.8L23.05-22.8 23.73-20.51ZM33.35-19.53L36.77-19.53 36.77-20.75 27.29-20.75 27.29-19.53 29.49-19.53 35.45-3.17Q36.42-0.44 37.6 0L37.6 0Q38.18 0.24 39.06 0.24L39.06 0.24 39.69 0.24 46.58-17.82Q47.17-19.34 48-19.48L48-19.48Q48.24-19.53 48.44-19.53L48.44-19.53Q49.51-19.53 49.61-20.26L49.61-20.26Q49.66-20.51 49.66-20.75L49.66-20.75 42.14-20.75 42.14-19.53 45.8-19.53 39.6-2.88 33.35-19.53ZM74.95-1.22L74.95-1.22 72.5-1.22 72.5-20.75 64.84-20.75 64.84-19.53 68.84-19.53 68.84-8.98Q68.84-4.59 65.77-2.54L65.77-2.54Q64.4-1.61 62.93-1.61L62.93-1.61Q58.93-1.61 58.3-5.71L58.3-5.71Q58.2-6.4 58.2-7.18L58.2-7.18 58.2-20.75 50.78-20.75 50.78-19.53 54.54-19.53 54.54-7.91Q54.58 0.44 61.52 0.49L61.52 0.49Q65.18 0.49 67.52-2.49L67.52-2.49Q68.4-3.61 68.94-4.98L68.94-4.98 69.28 0 76.17 0Q76.17-1.07 75.43-1.17L75.43-1.17Q75.24-1.22 74.95-1.22ZM89.06-1.22L89.06-1.22 86.42-1.22 86.42-31.74 79.09-31.74 79.09-30.52 82.76-30.52 82.76-4.15Q82.76-1.9 81.49-1.46L81.49-1.46Q80.75-1.22 79.09-1.22L79.09-1.22 79.09 0 90.28 0Q90.28-1.07 89.54-1.17L89.54-1.17Q89.35-1.22 89.06-1.22ZM103.07-1.22L103.07-1.22 100.62-1.22 100.62-20.75 93.06-20.75 93.06-19.53 96.96-19.53 96.96-4.15Q96.96-1.9 95.45-1.42L95.45-1.42Q94.72-1.22 93.06-1.22L93.06-1.22 93.06 0 104.29 0Q104.29-1.07 103.55-1.17L103.55-1.17Q103.31-1.22 103.07-1.22ZM101.21-27.88L101.21-27.88Q101.21-29.59 99.7-30.32L99.7-30.32Q99.11-30.57 98.57-30.57L98.57-30.57Q96.87-30.57 96.13-29L96.13-29Q95.89-28.47 95.89-27.88L95.89-27.88Q95.89-26.07 97.5-25.39L97.5-25.39Q98.04-25.2 98.57-25.2L98.57-25.2Q100.28-25.2 100.97-26.76L100.97-26.76Q101.21-27.29 101.21-27.88ZM116.74-1.22L116.74-1.22 114.54-1.22 114.54-11.77Q114.68-16.31 117.76-18.31L117.76-18.31Q119.08-19.14 120.45-19.14L120.45-19.14Q123.43-19.14 124.5-16.36L124.5-16.36Q124.94-15.23 124.94-13.82L124.94-13.82 124.94-4.15Q124.94-1.9 123.67-1.46L123.67-1.46Q122.94-1.22 121.28-1.22L121.28-1.22 121.28 0 132.26 0Q132.26-1.07 131.53-1.17L131.53-1.17Q131.34-1.22 131.04-1.22L131.04-1.22 128.6-1.22 128.6-13.33Q128.6-18.21 125.23-20.31L125.23-20.31Q123.67-21.24 121.86-21.24L121.86-21.24Q118.25-21.24 115.91-18.36L115.91-18.36Q115.03-17.24 114.49-15.87L114.49-15.87 114.29-20.75 107.21-20.75 107.21-19.53 110.88-19.53 110.88-4.15Q110.88-1.9 109.61-1.46L109.61-1.46Q108.87-1.22 107.21-1.22L107.21-1.22 107.21 0 117.96 0Q117.96-1.07 117.22-1.17L117.22-1.17Q117.03-1.22 116.74-1.22ZM145.64-20.02L145.64-20.02Q149.06-20.02 150.18-17.14L150.18-17.14Q150.57-16.21 150.57-15.14L150.57-15.14Q150.57-12.7 148.23-12.16L148.23-12.16Q147.01-11.91 144.76-11.96L144.76-11.96 139.58-12.11Q139.83-17.72 143.25-19.43L143.25-19.43Q144.37-20.02 145.64-20.02ZM154.14-4.69L154.14-4.69 152.91-5.13Q151.21-1.42 147.4-0.93L147.4-0.93Q146.91-0.88 146.47-0.88L146.47-0.88Q141.34-0.88 140.02-6.98L140.02-6.98Q139.63-8.69 139.58-10.74L139.58-10.74 145.44-10.64Q151.4-10.55 153.11-11.77L153.11-11.77Q154.43-12.74 154.43-14.55L154.43-14.55Q154.43-17.87 151.06-19.82L151.06-19.82Q148.67-21.24 145.54-21.24L145.54-21.24Q139.44-21.24 136.8-16.16L136.8-16.16Q135.43-13.53 135.43-10.21L135.43-10.21Q135.43-4.15 139.78-1.22L139.78-1.22Q142.37 0.49 145.69 0.49L145.69 0.49Q150.96 0.49 153.45-3.32L153.45-3.32Q153.84-4 154.14-4.69ZM194.27-28.03L194.27-29.3 186.46-29.3 175.91-5.42 164.58-29.3 157.6-29.3 157.6-28.03 161.51-28.03 161.51-1.27 157.6-1.27 157.6 0 167.37 0Q167.37-1.07 166.58-1.22L166.58-1.22Q166.34-1.27 166.1-1.27L166.1-1.27 163.46-1.27 163.46-22.27 174.15 0.24 175.18 0.24 186.46-24.9 186.46-1.27 182.55-1.27 182.55 0 194.27 0Q194.27-1.07 193.49-1.22L193.49-1.22Q193.24-1.27 193-1.27L193-1.27 190.36-1.27 190.36-28.03 194.27-28.03ZM203.15-2.25L203.15-2.25Q203.15-3.86 201.69-4.54L201.69-4.54Q201.2-4.79 200.66-4.79L200.66-4.79Q199.05-4.79 198.42-3.32L198.42-3.32Q198.17-2.78 198.17-2.25L198.17-2.25Q198.17-0.68 199.59 0L199.59 0Q200.13 0.24 200.66 0.24L200.66 0.24Q202.23 0.24 202.91-1.17L202.91-1.17Q203.15-1.71 203.15-2.25Z" opacity="1" transform="matrix(1,0,0,1,0,0)" fill="#0b0b0b" class="wordmark-text-0" data-fill-palette-color="primary" id="text-0"></path></svg></g></svg></g></svg></g></svg></g><g></g></svg></g></svg></g></svg></g></svg></g><defs></defs></svg><rect width="375.07953" height="148.22466" fill="none" stroke="none" visibility="hidden"></rect></g></svg></g></svg>